<svg xmlns="http://www.w3.org/2000/svg" viewBox="0 0 920 280" role="img" aria-label="TAKT OS">
  <defs>
    <linearGradient id="bg" x1="0%" y1="0%" x2="100%" y2="100%">
      <stop offset="0%" stop-color="#0b1220"/>
      <stop offset="100%" stop-color="#111d33"/>
    </linearGradient>
    <linearGradient id="accent" x1="0%" y1="0%" x2="100%" y2="0%">
      <stop offset="0%" stop-color="#22d3ee"/>
      <stop offset="50%" stop-color="#38bdf8"/>
      <stop offset="100%" stop-color="#818cf8"/>
    </linearGradient>
    <linearGradient id="chip" x1="0%" y1="0%" x2="0%" y2="100%">
      <stop offset="0%" stop-color="#1e293b"/>
      <stop offset="100%" stop-color="#0f172a"/>
    </linearGradient>
  </defs>

  <rect width="920" height="280" rx="18" fill="url(#bg)"/>
  <rect x="1" y="1" width="918" height="278" rx="17" fill="none" stroke="#1e3a5f" stroke-width="2"/>

  <g opacity="0.12" stroke="#38bdf8" stroke-width="1">
    <path d="M0 70 H920 M0 140 H920 M0 210 H920"/>
    <path d="M115 0 V280 M230 0 V280 M345 0 V280 M460 0 V280 M575 0 V280 M690 0 V280 M805 0 V280"/>
  </g>

  <g transform="translate(150 140)">
    <circle r="78" fill="none" stroke="#1e3a5f" stroke-width="10"/>
    <circle r="78" fill="none" stroke="url(#accent)" stroke-width="10" stroke-linecap="round"
            stroke-dasharray="120 370" transform="rotate(-90)"/>
    <g fill="#22d3ee">
      <circle cx="0" cy="-78" r="7"/>
      <circle cx="67.5" cy="-39" r="7"/>
      <circle cx="67.5" cy="39" r="7"/>
      <circle cx="0" cy="78" r="7"/>
      <circle cx="-67.5" cy="39" r="7"/>
      <circle cx="-67.5" cy="-39" r="7"/>
    </g>
    <circle r="34" fill="url(#chip)" stroke="#38bdf8" stroke-width="2"/>
    <text x="0" y="6" text-anchor="middle" font-family="monospace" font-size="15" font-weight="700" fill="#e2e8f0">CORE</text>
  </g>

  <g transform="translate(278 118)">
    <rect x="0" y="0" width="64" height="44" rx="6" fill="url(#chip)" stroke="#64748b" stroke-width="2"/>
    <g stroke="#94a3b8" stroke-width="2">
      <line x1="-10" y1="8" x2="0" y2="8"/><line x1="-10" y1="16" x2="0" y2="16"/>
      <line x1="-10" y1="24" x2="0" y2="24"/><line x1="-10" y1="32" x2="0" y2="32"/>
      <line x1="64" y1="8" x2="74" y2="8"/><line x1="64" y1="16" x2="74" y2="16"/>
      <line x1="64" y1="24" x2="74" y2="24"/><line x1="64" y1="32" x2="74" y2="32"/>
      <line x1="12" y1="-10" x2="12" y2="0"/><line x1="24" y1="-10" x2="24" y2="0"/>
      <line x1="36" y1="-10" x2="36" y2="0"/><line x1="48" y1="-10" x2="48" y2="0"/>
      <line x1="12" y1="44" x2="12" y2="54"/><line x1="24" y1="44" x2="24" y2="54"/>
      <line x1="36" y1="44" x2="36" y2="54"/><line x1="48" y1="44" x2="48" y2="54"/>
    </g>
    <text x="32" y="28" text-anchor="middle" font-family="monospace" font-size="11" fill="#94a3b8">ESP32</text>
  </g>

  <text x="360" y="98" font-family="sans-serif" font-size="54" font-weight="800" fill="#f8fafc" letter-spacing="2">TAKT OS</text>
  <text x="362" y="132" font-family="sans-serif" font-size="18" font-weight="500" fill="#94a3b8">Industrial cycle-based RTOS for ESP32</text>

  <rect x="360" y="152" width="520" height="36" rx="8" fill="#0f172a" stroke="#1e3a5f"/>
  <text x="376" y="175" font-family="monospace" font-size="14" fill="#22d3ee">takt loop | UART | Sensor | Modbus | WiFi | MQTT | OTA</text>

  <g transform="translate(360 205)" font-family="monospace" font-size="11">
    <rect x="0" y="0" width="88" height="22" rx="4" fill="#1d4ed8" opacity="0.85"/>
    <text x="44" y="15" text-anchor="middle" fill="#eff6ff">APP</text>
    <rect x="96" y="0" width="88" height="22" rx="4" fill="#0369a1" opacity="0.85"/>
    <text x="140" y="15" text-anchor="middle" fill="#eff6ff">MID</text>
    <rect x="192" y="0" width="88" height="22" rx="4" fill="#0e7490" opacity="0.85"/>
    <text x="236" y="15" text-anchor="middle" fill="#eff6ff">SVC</text>
    <rect x="288" y="0" width="88" height="22" rx="4" fill="#0f766e" opacity="0.85"/>
    <text x="332" y="15" text-anchor="middle" fill="#eff6ff">KERN</text>
    <rect x="384" y="0" width="88" height="22" rx="4" fill="#334155" opacity="0.9"/>
    <text x="428" y="15" text-anchor="middle" fill="#e2e8f0">HAL</text>
    <rect x="480" y="0" width="88" height="22" rx="4" fill="#475569" opacity="0.9"/>
    <text x="524" y="15" text-anchor="middle" fill="#e2e8f0">IDF</text>
  </g>

  <rect x="760" y="24" width="120" height="30" rx="15" fill="#172554" stroke="#38bdf8" stroke-width="1.5"/>
  <text x="820" y="44" text-anchor="middle" font-family="monospace" font-size="13" font-weight="700" fill="#38bdf8">v0.2.0</text>
</svg>
